<svg xmlns="http://www.w3.org/2000/svg" viewBox="0 0 241.86 192.69"><defs><style>.cls-1{fill:#356eff;}.cls-2{fill:#263656;}</style></defs><title>memento</title><g id="Layer_2" data-name="Layer 2"><g id="Layer_1-2" data-name="Layer 1"><path class="cls-1" d="M187,49.73a61,61,0,0,0-30.44,11.16,64.5,64.5,0,1,0-93.48,86.36V184.2a96.55,96.55,0,0,1-20-12.11L27.18,188A15.92,15.92,0,0,1,4.66,165.51l17-17A96.36,96.36,0,1,1,187,49.73Z"/><path class="cls-2" d="M241.86,110.43v82.26H210V110.43a18.06,18.06,0,0,0-36.12,0v82.26H142V123.6a18.07,18.07,0,0,0-36.13,0v69q-1.62.06-3.24.06H74.07V123.6a49.91,49.91,0,0,1,77.07-41.87A49.91,49.91,0,0,1,192,60.52h.17A49.92,49.92,0,0,1,241.86,110.43Z"/><path class="cls-2" d="M105.9,192.63v.06h-3.24Q104.28,192.69,105.9,192.63Z"/></g></g></svg>