<?xml version="1.0" encoding="UTF-8"?>
<svg width="33px" height="24px" viewBox="0 0 33 24" version="1.1" xmlns="http://www.w3.org/2000/svg" xmlns:xlink="http://www.w3.org/1999/xlink">
    <!-- Generator: Sketch 55.2 (78181) - https://sketchapp.com -->
    <title>Group 7</title>
    <desc>Created with Sketch.</desc>
    <defs>
        <polygon id="path-1" points="0 0.947 21.4157786 0.947 21.4157786 24.9999 0 24.9999"></polygon>
        <polygon id="path-3" points="0.8401 0.5175 26.227 0.5175 26.227 11.4285 0.8401 11.4285"></polygon>
    </defs>
    <g id="Page-1" stroke="none" stroke-width="1" fill="none" fill-rule="evenodd">
        <g id="Artboard" transform="translate(-64.000000, -36.000000)">
            <g id="Group-8" transform="translate(64.000000, 35.000000)">
                <g id="Group-7">
                    <g id="Group-3" transform="translate(0.000000, 0.053300)">
                        <mask id="mask-2" fill="white">
                            <use xlink:href="#path-1"></use>
                        </mask>
                        <g id="Clip-2"></g>
                        <path d="M12.027,24.9999 C5.395,24.9999 0,19.6039 0,12.9739 C0,6.3419 5.395,0.9469 12.027,0.9469 C15.395,0.9469 18.631,2.3729 20.903,4.8599 C21.633,5.6599 21.577,6.9009 20.777,7.6329 C19.977,8.3629 18.736,8.3079 18.005,7.5069 C16.475,5.8319 14.296,4.8709 12.027,4.8709 C7.559,4.8709 3.924,8.5059 3.924,12.9739 C3.924,17.4399 7.559,21.0749 12.027,21.0749 C14.296,21.0749 16.475,20.1139 18.005,18.4389 C18.736,17.6399 19.977,17.5829 20.777,18.3139 C21.577,19.0449 21.633,20.2859 20.903,21.0859 C18.631,23.5729 15.395,24.9999 12.027,24.9999" id="Fill-1" fill="#004AFF" mask="url(#mask-2)"></path>
                    </g>
                    <g id="Group-6" transform="translate(6.000000, 7.053300)">
                        <mask id="mask-4" fill="white">
                            <use xlink:href="#path-3"></use>
                        </mask>
                        <g id="Clip-5"></g>
                        <path d="M20.7721,0.5175 C18.7731,0.5175 17.0251,1.5935 16.0761,3.1985 C15.5821,3.9335 14.7781,4.4435 13.8511,4.5385 L13.2231,4.5385 C12.2511,4.4395 11.4131,3.8855 10.9261,3.0905 C10.9231,3.0865 10.9201,3.0805 10.9161,3.0745 C10.8401,2.9535 10.7611,2.8345 10.6761,2.7225 C10.6721,2.7175 10.6681,2.7125 10.6661,2.7075 C9.6701,1.3785 8.0841,0.5185 6.2951,0.5185 C3.2831,0.5185 0.8401,2.9605 0.8401,5.9735 C0.8401,8.9865 3.2831,11.4285 6.2951,11.4285 C8.3121,11.4285 10.0701,10.3325 11.0131,8.7065 C10.9841,8.7565 10.9571,8.8075 10.9261,8.8555 C11.4131,8.0615 12.2511,7.5065 13.2231,7.4085 L13.8461,7.4085 C14.7911,7.5045 15.6091,8.0325 16.1001,8.7915 C17.0551,10.3715 18.7911,11.4285 20.7721,11.4285 C23.7851,11.4285 26.2271,8.9865 26.2271,5.9735 C26.2271,2.9595 23.7851,0.5175 20.7721,0.5175" id="Fill-4" fill="#273556" mask="url(#mask-4)"></path>
                    </g>
                </g>
            </g>
        </g>
    </g>
</svg>